<svg xmlns="http://www.w3.org/2000/svg" width="980" height="420" viewBox="0 0 980 420" role="img" aria-labelledby="title desc">
  <title id="title">Turbofan maintenance model results</title>
  <desc id="desc">Summary chart comparing regression error and classification performance for the predictive maintenance models.</desc>
  <rect width="980" height="420" fill="#ffffff"/>
  <text x="490" y="34" text-anchor="middle" font-family="Arial, sans-serif" font-size="24" font-weight="700" fill="#222222">Turbofan maintenance model results</text>

  <text x="250" y="74" text-anchor="middle" font-family="Arial, sans-serif" font-size="17" font-weight="700" fill="#222222">Regression error on test engines</text>
  <line x1="80" y1="330" x2="435" y2="330" stroke="#333333" stroke-width="1"/>
  <line x1="80" y1="100" x2="80" y2="330" stroke="#333333" stroke-width="1"/>
  <line x1="80" y1="215" x2="435" y2="215" stroke="#d9d9d9" stroke-width="1"/>
  <line x1="80" y1="100" x2="435" y2="100" stroke="#d9d9d9" stroke-width="1"/>
  <text x="68" y="334" text-anchor="end" font-family="Arial, sans-serif" font-size="12" fill="#555555">0</text>
  <text x="68" y="219" text-anchor="end" font-family="Arial, sans-serif" font-size="12" fill="#555555">10</text>
  <text x="68" y="104" text-anchor="end" font-family="Arial, sans-serif" font-size="12" fill="#555555">20</text>
  <text x="68" y="88" text-anchor="end" font-family="Arial, sans-serif" font-size="12" fill="#555555">cycles</text>

  <rect x="150" y="139" width="44" height="191" fill="#4C78A8"/>
  <rect x="200" y="92" width="44" height="238" fill="#F58518"/>
  <rect x="315" y="147" width="44" height="183" fill="#4C78A8"/>
  <rect x="365" y="94" width="44" height="236" fill="#F58518"/>
  <text x="172" y="132" text-anchor="middle" font-family="Arial, sans-serif" font-size="12" fill="#333333">16.63</text>
  <text x="222" y="85" text-anchor="middle" font-family="Arial, sans-serif" font-size="12" fill="#333333">20.65</text>
  <text x="337" y="140" text-anchor="middle" font-family="Arial, sans-serif" font-size="12" fill="#333333">15.89</text>
  <text x="387" y="87" text-anchor="middle" font-family="Arial, sans-serif" font-size="12" fill="#333333">20.50</text>
  <text x="197" y="356" text-anchor="middle" font-family="Arial, sans-serif" font-size="13" fill="#333333">Stepwise quadratic</text>
  <text x="362" y="356" text-anchor="middle" font-family="Arial, sans-serif" font-size="13" fill="#333333">Random forest</text>
  <rect x="130" y="382" width="14" height="14" fill="#4C78A8"/>
  <text x="150" y="394" font-family="Arial, sans-serif" font-size="13" fill="#333333">MAE</text>
  <rect x="200" y="382" width="14" height="14" fill="#F58518"/>
  <text x="220" y="394" font-family="Arial, sans-serif" font-size="13" fill="#333333">RMSE</text>

  <text x="730" y="74" text-anchor="middle" font-family="Arial, sans-serif" font-size="17" font-weight="700" fill="#222222">Classification performance on test engines</text>
  <line x1="560" y1="330" x2="915" y2="330" stroke="#333333" stroke-width="1"/>
  <line x1="560" y1="100" x2="560" y2="330" stroke="#333333" stroke-width="1"/>
  <line x1="560" y1="215" x2="915" y2="215" stroke="#d9d9d9" stroke-width="1"/>
  <line x1="560" y1="100" x2="915" y2="100" stroke="#d9d9d9" stroke-width="1"/>
  <text x="548" y="334" text-anchor="end" font-family="Arial, sans-serif" font-size="12" fill="#555555">0.0</text>
  <text x="548" y="219" text-anchor="end" font-family="Arial, sans-serif" font-size="12" fill="#555555">0.5</text>
  <text x="548" y="104" text-anchor="end" font-family="Arial, sans-serif" font-size="12" fill="#555555">1.0</text>

  <rect x="630" y="141" width="44" height="189" fill="#54A24B"/>
  <rect x="680" y="137" width="44" height="193" fill="#E45756"/>
  <rect x="795" y="132" width="44" height="198" fill="#54A24B"/>
  <rect x="845" y="100" width="44" height="230" fill="#E45756"/>
  <text x="652" y="134" text-anchor="middle" font-family="Arial, sans-serif" font-size="12" fill="#333333">0.82</text>
  <text x="702" y="130" text-anchor="middle" font-family="Arial, sans-serif" font-size="12" fill="#333333">0.84</text>
  <text x="817" y="125" text-anchor="middle" font-family="Arial, sans-serif" font-size="12" fill="#333333">0.86</text>
  <text x="867" y="93" text-anchor="middle" font-family="Arial, sans-serif" font-size="12" fill="#333333">1.00</text>
  <text x="677" y="356" text-anchor="middle" font-family="Arial, sans-serif" font-size="13" fill="#333333">Logistic regression</text>
  <text x="842" y="356" text-anchor="middle" font-family="Arial, sans-serif" font-size="13" fill="#333333">KNN</text>
  <rect x="610" y="382" width="14" height="14" fill="#54A24B"/>
  <text x="630" y="394" font-family="Arial, sans-serif" font-size="13" fill="#333333">F1</text>
  <rect x="680" y="382" width="14" height="14" fill="#E45756"/>
  <text x="700" y="394" font-family="Arial, sans-serif" font-size="13" fill="#333333">Recall</text>
</svg>
